<svg width="25" height="25" viewBox="0 0 25 25" fill="none" xmlns="http://www.w3.org/2000/svg">
<path fill-rule="evenodd" clip-rule="evenodd" d="M17.7041 10.4264L12.1211 16.0104C11.933 16.1972 11.6787 16.3021 11.4136 16.3021C11.1485 16.3021 10.8942 16.1972 10.7061 16.0104L7.29007 12.5944C7.19723 12.5016 7.12358 12.3914 7.07333 12.2701C7.02308 12.1487 6.99722 12.0187 6.99722 11.8874C6.99722 11.6222 7.10256 11.3679 7.29007 11.1804C7.47758 10.9929 7.73189 10.8876 7.99707 10.8876C8.26225 10.8876 8.51656 10.9929 8.70407 11.1804L11.4131 13.8894L16.2901 9.01243C16.3829 8.91958 16.4931 8.84593 16.6144 8.79569C16.7358 8.74544 16.8658 8.71958 16.9971 8.71958C17.1284 8.71958 17.2584 8.74544 17.3797 8.79569C17.501 8.84593 17.6112 8.91958 17.7041 9.01243C17.7969 9.10527 17.8706 9.21549 17.9208 9.3368C17.9711 9.45811 17.9969 9.58812 17.9969 9.71943C17.9969 9.85073 17.9711 9.98074 17.9208 10.1021C17.8706 10.2234 17.7969 10.3336 17.7041 10.4264ZM12.4971 1.21143C6.42207 1.21143 1.49707 6.13643 1.49707 12.2114C1.49707 18.2864 6.42207 23.2114 12.4971 23.2114C18.5721 23.2114 23.4971 18.2864 23.4971 12.2114C23.4971 6.13643 18.5721 1.21143 12.4971 1.21143Z" fill="#FF307B"/>
</svg>
